<?xml version="1.0" standalone="no"?>
<!DOCTYPE svg PUBLIC "-//W3C//DTD SVG 20010904//EN"
 "http://www.w3.org/TR/2001/REC-SVG-20010904/DTD/svg10.dtd">
<svg version="1.0" xmlns="http://www.w3.org/2000/svg"
 width="700.000000pt" height="700.000000pt" viewBox="0 0 700.000000 700.000000"
 preserveAspectRatio="xMidYMid meet">
<metadata>
Created by potrace 1.14, written by Peter Selinger 2001-2017
</metadata>
<g transform="translate(0.000000,700.000000) scale(0.100000,-0.100000)"
fill="#000000" stroke="none">
<path d="M507 6404 c-83 -21 -153 -80 -190 -162 l-22 -47 -3 -2247 -2 -2246
21 -49 c11 -26 30 -62 41 -79 28 -41 102 -90 158 -105 33 -8 322 -11 1110 -12
849 0 1078 -3 1130 -13 184 -38 348 -179 419 -361 26 -66 30 -88 37 -193 7
-101 33 -167 89 -222 59 -59 117 -82 205 -81 90 0 147 22 203 79 66 66 83 111
92 244 10 146 59 259 159 364 83 88 172 140 297 173 13 3 517 7 1119 9 1090 2
1095 2 1152 23 65 25 128 85 161 152 l22 44 3 2240 c2 2460 6 2294 -58 2383
-37 52 -93 89 -156 106 -38 10 -260 12 -1009 11 -528 -1 -980 -5 -1005 -9
-258 -43 -475 -129 -661 -262 -84 -60 -229 -196 -287 -269 l-32 -40 -20 25
c-228 281 -523 460 -870 529 -52 10 -102 19 -110 20 -8 1 -449 3 -980 5 -741
2 -976 0 -1013 -10z m1972 -584 c272 -46 510 -222 636 -471 25 -48 61 -148 71
-194 2 -11 7 -31 10 -45 7 -23 14 -3220 8 -3220 -2 0 -34 15 -71 34 -123 60
-252 98 -393 112 -30 3 -462 6 -960 6 l-905 1 0 1886 c0 1037 3 1891 7 1896
10 16 1503 11 1597 -5z m3616 11 l30 -1 0 -1894 0 -1893 -900 0 c-495 0 -928
-3 -963 -7 -136 -14 -289 -58 -403 -115 -33 -17 -61 -31 -63 -31 -2 0 -2 721
-1 1603 l2 1602 21 80 c99 362 403 620 769 653 59 5 1340 8 1508 3z"/>
</g>
</svg>
